<?xml version="1.0" encoding="UTF-8" standalone="no"?>
<!-- Created with Inkscape (http://www.inkscape.org/) -->

<svg
   width="1920"
   height="1080"
   viewBox="0 0 508 285.75"
   version="1.1"
   id="svg1"
   inkscape:version="1.3.2 (091e20e, 2023-11-25, custom)"
   sodipodi:docname="2DSampleScene.svg"
   inkscape:export-filename="Assets\ClickIt!\Sample Scenes\Scene Assets\3D Art\3DSampleScene.png"
   inkscape:export-xdpi="96"
   inkscape:export-ydpi="96"
   xmlns:inkscape="http://www.inkscape.org/namespaces/inkscape"
   xmlns:sodipodi="http://sodipodi.sourceforge.net/DTD/sodipodi-0.dtd"
   xmlns:xlink="http://www.w3.org/1999/xlink"
   xmlns="http://www.w3.org/2000/svg"
   xmlns:svg="http://www.w3.org/2000/svg">
  <sodipodi:namedview
     id="namedview1"
     pagecolor="#ffffff"
     bordercolor="#000000"
     borderopacity="0.25"
     inkscape:showpageshadow="2"
     inkscape:pageopacity="0.0"
     inkscape:pagecheckerboard="0"
     inkscape:deskcolor="#d1d1d1"
     inkscape:document-units="mm"
     inkscape:zoom="0.47883347"
     inkscape:cx="950.22597"
     inkscape:cy="667.24659"
     inkscape:window-width="1920"
     inkscape:window-height="1011"
     inkscape:window-x="-9"
     inkscape:window-y="31"
     inkscape:window-maximized="1"
     inkscape:current-layer="layer1"
     showguides="false"
     showgrid="false">
    <sodipodi:guide
       position="-1.1721528,303.33229"
       orientation="0,-1"
       id="guide2"
       inkscape:locked="false" />
  </sodipodi:namedview>
  <defs
     id="defs1">
    <rect
       x="1247.8351"
       y="999.74483"
       width="638.17446"
       height="71.810812"
       id="rect5" />
    <rect
       x="42.825111"
       y="623.1792"
       width="323.40343"
       height="206.74191"
       id="rect2" />
    <rect
       x="39.871655"
       y="629.08611"
       width="277.62486"
       height="115.18478"
       id="rect1" />
    <linearGradient
       inkscape:collect="always"
       xlink:href="#linearGradient14"
       id="linearGradient21"
       x1="1.9073486e-06"
       y1="0"
       x2="111.125"
       y2="74.083336"
       gradientUnits="userSpaceOnUse"
       gradientTransform="matrix(4.5714286,0,0,3.8571426,0.41441337,3.2326678e-6)" />
    <linearGradient
       id="linearGradient14"
       inkscape:collect="always">
      <stop
         style="stop-color:#a700ff;stop-opacity:1;"
         offset="0.12202853"
         id="stop14" />
      <stop
         style="stop-color:#62aae4;stop-opacity:1;"
         offset="0.89064974"
         id="stop15" />
    </linearGradient>
    <rect
       x="42.825111"
       y="623.1792"
       width="323.40344"
       height="206.74191"
       id="rect2-4" />
    <rect
       x="42.825111"
       y="623.1792"
       width="323.40344"
       height="206.74191"
       id="rect2-6" />
    <rect
       x="42.825111"
       y="623.1792"
       width="323.40344"
       height="206.74191"
       id="rect2-4-3" />
    <rect
       x="42.825111"
       y="623.1792"
       width="323.40344"
       height="206.74191"
       id="rect2-4-3-8" />
    <rect
       x="42.825111"
       y="623.1792"
       width="323.40344"
       height="206.74191"
       id="rect2-4-3-5" />
    <rect
       x="42.825111"
       y="623.1792"
       width="323.40344"
       height="206.74191"
       id="rect2-4-3-5-2" />
    <rect
       x="42.825111"
       y="623.1792"
       width="271.71796"
       height="249.56702"
       id="rect3" />
    <rect
       x="38.96104"
       y="60"
       width="105.97403"
       height="67.012985"
       id="rect3-2" />
    <rect
       x="31.168831"
       y="83.376625"
       width="116.88312"
       height="49.870129"
       id="rect4" />
  </defs>
  <g
     inkscape:label="Layer 1"
     inkscape:groupmode="layer"
     id="layer1">
    <rect
       style="fill:url(#linearGradient21);fill-opacity:1;stroke-width:1.97896;stroke-linecap:round;stroke-linejoin:round;paint-order:stroke markers fill"
       id="rect6"
       width="508"
       height="285.75"
       x="0.41441861"
       y="0" />
    <path
       sodipodi:type="star"
       style="display:none;mix-blend-mode:color-dodge;fill:#ffff66;fill-opacity:0.5;stroke:none;stroke-width:2.3;stroke-linecap:square;stroke-linejoin:round;stroke-dashoffset:5.80535;stroke-opacity:0.5;paint-order:markers stroke fill"
       id="path1"
       inkscape:flatsided="false"
       sodipodi:sides="5"
       sodipodi:cx="109.95907"
       sodipodi:cy="56.360928"
       sodipodi:r1="22.018053"
       sodipodi:r2="40.032825"
       sodipodi:arg1="1.2048859"
       sodipodi:arg2="1.8332044"
       inkscape:rounded="0.1"
       inkscape:randomized="0"
       d="M 117.83712,76.92135 C 115.43594,77.841399 102.05766,95.690395 99.574275,95.023354 97.090891,94.356312 94.456419,72.206263 92.839396,70.206919 91.222373,68.207575 70.112853,60.999715 69.979839,58.431749 69.846825,55.863784 90.098677,46.51351 91.500478,44.357798 c 1.401802,-2.155711 1.733684,-24.459409 4.13486,-25.379458 2.401177,-0.920049 17.551982,15.451213 20.035362,16.118254 2.48339,0.667041 23.79802,-5.909542 25.41505,-3.910198 1.61702,1.999344 -9.27112,21.467615 -9.13811,24.03558 0.13302,2.567966 12.9743,20.807112 11.5725,22.962823 -1.4018,2.155712 -23.28184,-2.183498 -25.68302,-1.263449 z"
       inkscape:transform-center-x="-5.1319974"
       inkscape:transform-center-y="-1.9317823"
       transform="matrix(0.75096278,0.2807857,-0.2807857,0.75096278,-22.217969,77.258678)" />
    <path
       sodipodi:type="star"
       style="display:none;mix-blend-mode:color-dodge;fill:#ffff66;fill-opacity:0.5;stroke:none;stroke-width:2.3;stroke-linecap:square;stroke-linejoin:round;stroke-dashoffset:5.80535;stroke-opacity:0.5;paint-order:markers stroke fill"
       id="path1-8"
       inkscape:flatsided="false"
       sodipodi:sides="5"
       sodipodi:cx="109.95907"
       sodipodi:cy="56.360928"
       sodipodi:r1="22.018053"
       sodipodi:r2="40.032825"
       sodipodi:arg1="1.2048859"
       sodipodi:arg2="1.8332044"
       inkscape:rounded="0.1"
       inkscape:randomized="0"
       d="M 117.83712,76.92135 C 115.43594,77.841399 102.05766,95.690395 99.574275,95.023354 97.090891,94.356312 94.456419,72.206263 92.839396,70.206919 91.222373,68.207575 70.112853,60.999715 69.979839,58.431749 69.846825,55.863784 90.098677,46.51351 91.500478,44.357798 c 1.401802,-2.155711 1.733684,-24.459409 4.13486,-25.379458 2.401177,-0.920049 17.551982,15.451213 20.035362,16.118254 2.48339,0.667041 23.79802,-5.909542 25.41505,-3.910198 1.61702,1.999344 -9.27112,21.467615 -9.13811,24.03558 0.13302,2.567966 12.9743,20.807112 11.5725,22.962823 -1.4018,2.155712 -23.28184,-2.183498 -25.68302,-1.263449 z"
       inkscape:transform-center-x="-5.1319975"
       inkscape:transform-center-y="-1.9317824"
       transform="matrix(0.75096278,0.2807857,-0.2807857,0.75096278,37.391313,52.258678)" />
    <path
       sodipodi:type="star"
       style="display:none;mix-blend-mode:color-dodge;fill:#ffff66;fill-opacity:0.5;stroke:none;stroke-width:2.3;stroke-linecap:square;stroke-linejoin:round;stroke-dashoffset:5.80535;stroke-opacity:0.5;paint-order:markers stroke fill"
       id="path1-8-4"
       inkscape:flatsided="false"
       sodipodi:sides="5"
       sodipodi:cx="109.95907"
       sodipodi:cy="56.360928"
       sodipodi:r1="22.018053"
       sodipodi:r2="40.032825"
       sodipodi:arg1="1.2048859"
       sodipodi:arg2="1.8332044"
       inkscape:rounded="0.1"
       inkscape:randomized="0"
       d="M 117.83712,76.92135 C 115.43594,77.841399 102.05766,95.690395 99.574275,95.023354 97.090891,94.356312 94.456419,72.206263 92.839396,70.206919 91.222373,68.207575 70.112853,60.999715 69.979839,58.431749 69.846825,55.863784 90.098677,46.51351 91.500478,44.357798 c 1.401802,-2.155711 1.733684,-24.459409 4.13486,-25.379458 2.401177,-0.920049 17.551982,15.451213 20.035362,16.118254 2.48339,0.667041 23.79802,-5.909542 25.41505,-3.910198 1.61702,1.999344 -9.27112,21.467615 -9.13811,24.03558 0.13302,2.567966 12.9743,20.807112 11.5725,22.962823 -1.4018,2.155712 -23.28184,-2.183498 -25.68302,-1.263449 z"
       inkscape:transform-center-x="-5.1319983"
       inkscape:transform-center-y="-1.9317824"
       transform="matrix(0.75096278,0.2807857,-0.2807857,0.75096278,97.391313,77.258678)" />
    <path
       sodipodi:type="star"
       style="display:none;mix-blend-mode:color-dodge;fill:#ffff66;fill-opacity:0.5;stroke:none;stroke-width:2.3;stroke-linecap:square;stroke-linejoin:round;stroke-dashoffset:5.80535;stroke-opacity:0.5;paint-order:markers stroke fill"
       id="path1-8-4-6"
       inkscape:flatsided="false"
       sodipodi:sides="5"
       sodipodi:cx="109.95907"
       sodipodi:cy="56.360928"
       sodipodi:r1="22.018053"
       sodipodi:r2="40.032825"
       sodipodi:arg1="1.2048859"
       sodipodi:arg2="1.8332044"
       inkscape:rounded="0.1"
       inkscape:randomized="0"
       d="M 117.83712,76.92135 C 115.43594,77.841399 102.05766,95.690395 99.574275,95.023354 97.090891,94.356312 94.456419,72.206263 92.839396,70.206919 91.222373,68.207575 70.112853,60.999715 69.979839,58.431749 69.846825,55.863784 90.098677,46.51351 91.500478,44.357798 c 1.401802,-2.155711 1.733684,-24.459409 4.13486,-25.379458 2.401177,-0.920049 17.551982,15.451213 20.035362,16.118254 2.48339,0.667041 23.79802,-5.909542 25.41505,-3.910198 1.61702,1.999344 -9.27112,21.467615 -9.13811,24.03558 0.13302,2.567966 12.9743,20.807112 11.5725,22.962823 -1.4018,2.155712 -23.28184,-2.183498 -25.68302,-1.263449 z"
       inkscape:transform-center-x="-5.1319981"
       inkscape:transform-center-y="-1.9317831"
       transform="matrix(0.75096278,0.2807857,-0.2807857,0.75096278,157.39132,52.258678)" />
    <path
       sodipodi:type="star"
       style="display:none;mix-blend-mode:color-dodge;fill:#ffff66;fill-opacity:0.5;stroke:none;stroke-width:2.3;stroke-linecap:square;stroke-linejoin:round;stroke-dashoffset:5.80535;stroke-opacity:0.5;paint-order:markers stroke fill"
       id="path1-8-4-6-4"
       inkscape:flatsided="false"
       sodipodi:sides="5"
       sodipodi:cx="109.95907"
       sodipodi:cy="56.360928"
       sodipodi:r1="22.018053"
       sodipodi:r2="40.032825"
       sodipodi:arg1="1.2048859"
       sodipodi:arg2="1.8332044"
       inkscape:rounded="0.1"
       inkscape:randomized="0"
       d="M 117.83712,76.92135 C 115.43594,77.841399 102.05766,95.690395 99.574275,95.023354 97.090891,94.356312 94.456419,72.206263 92.839396,70.206919 91.222373,68.207575 70.112853,60.999715 69.979839,58.431749 69.846825,55.863784 90.098677,46.51351 91.500478,44.357798 c 1.401802,-2.155711 1.733684,-24.459409 4.13486,-25.379458 2.401177,-0.920049 17.551982,15.451213 20.035362,16.118254 2.48339,0.667041 23.79802,-5.909542 25.41505,-3.910198 1.61702,1.999344 -9.27112,21.467615 -9.13811,24.03558 0.13302,2.567966 12.9743,20.807112 11.5725,22.962823 -1.4018,2.155712 -23.28184,-2.183498 -25.68302,-1.263449 z"
       inkscape:transform-center-x="-5.1319973"
       inkscape:transform-center-y="-1.9317826"
       transform="matrix(0.75096278,0.2807857,-0.2807857,0.75096278,217.39132,77.258678)" />
    <path
       sodipodi:type="star"
       style="display:none;mix-blend-mode:color-dodge;fill:#ffff66;fill-opacity:0.5;stroke:none;stroke-width:2.3;stroke-linecap:square;stroke-linejoin:round;stroke-dashoffset:5.80535;stroke-opacity:0.5;paint-order:markers stroke fill"
       id="path1-8-4-6-4-0"
       inkscape:flatsided="false"
       sodipodi:sides="5"
       sodipodi:cx="109.95907"
       sodipodi:cy="56.360928"
       sodipodi:r1="22.018053"
       sodipodi:r2="40.032825"
       sodipodi:arg1="1.2048859"
       sodipodi:arg2="1.8332044"
       inkscape:rounded="0.1"
       inkscape:randomized="0"
       d="M 117.83712,76.92135 C 115.43594,77.841399 102.05766,95.690395 99.574275,95.023354 97.090891,94.356312 94.456419,72.206263 92.839396,70.206919 91.222373,68.207575 70.112853,60.999715 69.979839,58.431749 69.846825,55.863784 90.098677,46.51351 91.500478,44.357798 c 1.401802,-2.155711 1.733684,-24.459409 4.13486,-25.379458 2.401177,-0.920049 17.551982,15.451213 20.035362,16.118254 2.48339,0.667041 23.79802,-5.909542 25.41505,-3.910198 1.61702,1.999344 -9.27112,21.467615 -9.13811,24.03558 0.13302,2.567966 12.9743,20.807112 11.5725,22.962823 -1.4018,2.155712 -23.28184,-2.183498 -25.68302,-1.263449 z"
       inkscape:transform-center-x="53.787995"
       inkscape:transform-center-y="28.19273"
       transform="matrix(0.75096278,0.2807857,-0.2807857,0.75096278,277.39132,52.258678)" />
    <path
       sodipodi:type="star"
       style="display:none;mix-blend-mode:color-dodge;fill:#ffff66;fill-opacity:0.5;stroke:none;stroke-width:2.3;stroke-linecap:square;stroke-linejoin:round;stroke-dashoffset:5.80535;stroke-opacity:0.5;paint-order:markers stroke fill"
       id="path1-8-4-6-4-0-0"
       inkscape:flatsided="false"
       sodipodi:sides="5"
       sodipodi:cx="109.95907"
       sodipodi:cy="56.360928"
       sodipodi:r1="22.018053"
       sodipodi:r2="40.032825"
       sodipodi:arg1="1.2048859"
       sodipodi:arg2="1.8332044"
       inkscape:rounded="0.1"
       inkscape:randomized="0"
       d="M 117.83712,76.92135 C 115.43594,77.841399 102.05766,95.690395 99.574275,95.023354 97.090891,94.356312 94.456419,72.206263 92.839396,70.206919 91.222373,68.207575 70.112853,60.999715 69.979839,58.431749 69.846825,55.863784 90.098677,46.51351 91.500478,44.357798 c 1.401802,-2.155711 1.733684,-24.459409 4.13486,-25.379458 2.401177,-0.920049 17.551982,15.451213 20.035362,16.118254 2.48339,0.667041 23.79802,-5.909542 25.41505,-3.910198 1.61702,1.999344 -9.27112,21.467615 -9.13811,24.03558 0.13302,2.567966 12.9743,20.807112 11.5725,22.962823 -1.4018,2.155712 -23.28184,-2.183498 -25.68302,-1.263449 z"
       inkscape:transform-center-x="53.787994"
       inkscape:transform-center-y="28.192729"
       transform="matrix(0.75096278,0.2807857,-0.2807857,0.75096278,337.39132,77.258678)" />
    <path
       sodipodi:type="star"
       style="display:none;mix-blend-mode:color-dodge;fill:#ffff66;fill-opacity:0.5;stroke:none;stroke-width:2.3;stroke-linecap:square;stroke-linejoin:round;stroke-dashoffset:5.80535;stroke-opacity:0.5;paint-order:markers stroke fill"
       id="path1-8-4-6-4-0-0-7"
       inkscape:flatsided="false"
       sodipodi:sides="5"
       sodipodi:cx="109.95907"
       sodipodi:cy="56.360928"
       sodipodi:r1="22.018053"
       sodipodi:r2="40.032825"
       sodipodi:arg1="1.2048859"
       sodipodi:arg2="1.8332044"
       inkscape:rounded="0.1"
       inkscape:randomized="0"
       d="M 117.83712,76.92135 C 115.43594,77.841399 102.05766,95.690395 99.574275,95.023354 97.090891,94.356312 94.456419,72.206263 92.839396,70.206919 91.222373,68.207575 70.112853,60.999715 69.979839,58.431749 69.846825,55.863784 90.098677,46.51351 91.500478,44.357798 c 1.401802,-2.155711 1.733684,-24.459409 4.13486,-25.379458 2.401177,-0.920049 17.551982,15.451213 20.035362,16.118254 2.48339,0.667041 23.79802,-5.909542 25.41505,-3.910198 1.61702,1.999344 -9.27112,21.467615 -9.13811,24.03558 0.13302,2.567966 12.9743,20.807112 11.5725,22.962823 -1.4018,2.155712 -23.28184,-2.183498 -25.68302,-1.263449 z"
       inkscape:transform-center-x="53.787994"
       inkscape:transform-center-y="28.19273"
       transform="matrix(0.75096278,0.2807857,-0.2807857,0.75096278,397.39132,52.258678)" />
    <text
       xml:space="preserve"
       transform="matrix(0.26458333,0,0,0.26458333,0,18.363728)"
       id="text1"
       style="font-size:32px;line-height:1;font-family:Righteous;-inkscape-font-specification:Righteous;text-align:center;text-decoration-color:#000000;letter-spacing:0px;word-spacing:0px;white-space:pre;shape-inside:url(#rect1);display:inline;fill:#ffff66;fill-opacity:0.5;stroke:none;stroke-width:8.69291;stroke-linecap:square;stroke-linejoin:round;stroke-dashoffset:5.80535;stroke-opacity:0.5;paint-order:markers stroke fill" />
    <text
       xml:space="preserve"
       transform="matrix(0.26458333,0,0,0.26458333,-9.4279595,21.498736)"
       id="text2"
       style="font-size:48px;line-height:1;font-family:Righteous;-inkscape-font-specification:Righteous;text-align:center;text-decoration-color:#000000;letter-spacing:0px;word-spacing:0px;white-space:pre;shape-inside:url(#rect2);display:inline;fill:#ffff66;fill-opacity:1;stroke:none;stroke-width:8.69291;stroke-linecap:square;stroke-linejoin:round;stroke-dashoffset:5.80535;stroke-opacity:0.5;paint-order:markers stroke fill"><tspan
         x="87.163086"
         y="661.25126"
         id="tspan2">Basic click
</tspan><tspan
         x="69.479492"
         y="709.25126"
         id="tspan5">interactions</tspan></text>
    <text
       xml:space="preserve"
       transform="matrix(0.26458333,0,0,0.26458333,49.766779,-128.47844)"
       id="text2-17"
       style="font-size:48px;line-height:1;font-family:Righteous;-inkscape-font-specification:Righteous;text-align:center;text-decoration-color:#000000;letter-spacing:0px;word-spacing:0px;white-space:pre;shape-inside:url(#rect2-6);display:inline;fill:#ffff66;fill-opacity:1;stroke:none;stroke-width:8.69291;stroke-linecap:square;stroke-linejoin:round;stroke-dashoffset:5.80535;stroke-opacity:0.5;paint-order:markers stroke fill"><tspan
         x="90.280273"
         y="661.25126"
         id="tspan37">Combining </tspan><tspan
         x="55.592773"
         y="709.25126"
         id="tspan38">click, release, </tspan><tspan
         x="105.85449"
         y="757.25126"
         id="tspan39">and click </tspan><tspan
         x="143.6709"
         y="805.25126"
         id="tspan40">away</tspan></text>
    <text
       xml:space="preserve"
       transform="matrix(0.26458333,0,0,0.26458333,110.37365,21.498736)"
       id="text2-1"
       style="font-size:48px;line-height:1;font-family:Righteous;-inkscape-font-specification:Righteous;text-align:center;text-decoration-color:#000000;letter-spacing:0px;word-spacing:0px;white-space:pre;shape-inside:url(#rect2-4);display:inline;fill:#ffff66;fill-opacity:1;stroke:none;stroke-width:8.69291;stroke-linecap:square;stroke-linejoin:round;stroke-dashoffset:5.80535;stroke-opacity:0.5;paint-order:markers stroke fill"><tspan
         x="64.709961"
         y="661.25126"
         id="tspan41">Using mouse </tspan><tspan
         x="50.155273"
         y="709.25126"
         id="tspan42">information in </tspan><tspan
         x="135.0459"
         y="757.25126"
         id="tspan43">object </tspan><tspan
         x="94.81543"
         y="805.25126"
         id="tspan44">behaviors</tspan></text>
    <text
       xml:space="preserve"
       transform="matrix(0.26458333,0,0,0.26458333,169.41713,-128.47872)"
       id="text2-1-4"
       style="font-size:48px;line-height:1;font-family:Righteous;-inkscape-font-specification:Righteous;text-align:center;text-decoration-color:#000000;letter-spacing:0px;word-spacing:0px;white-space:pre;shape-inside:url(#rect2-4-3);display:inline;fill:#ffff66;fill-opacity:1;stroke:none;stroke-width:8.69291;stroke-linecap:square;stroke-linejoin:round;stroke-dashoffset:5.80535;stroke-opacity:0.5;paint-order:markers stroke fill"><tspan
         x="73.393555"
         y="661.25126"
         id="tspan45">Subscribing </tspan><tspan
         x="113.71777"
         y="709.25126"
         id="tspan46">to basic </tspan><tspan
         x="68.987305"
         y="757.25126"
         id="tspan47">components
</tspan><tspan
         x="125.26074"
         y="805.25126"
         id="tspan48">in code</tspan></text>
    <text
       xml:space="preserve"
       transform="matrix(0.26458333,0,0,0.26458333,289.22028,-128.47845)"
       id="text2-1-4-4"
       style="font-size:48px;line-height:1;font-family:Righteous;-inkscape-font-specification:Righteous;text-align:center;text-decoration-color:#000000;letter-spacing:0px;word-spacing:0px;white-space:pre;shape-inside:url(#rect2-4-3-5);display:inline;fill:#ffff66;fill-opacity:1;stroke:none;stroke-width:8.69291;stroke-linecap:square;stroke-linejoin:round;stroke-dashoffset:5.80535;stroke-opacity:0.5;paint-order:markers stroke fill"><tspan
         x="142.27637"
         y="661.25126"
         id="tspan49">Using </tspan><tspan
         x="92.272461"
         y="709.25126"
         id="tspan50">cooldown, </tspan><tspan
         x="81.209961"
         y="757.25126"
         id="tspan51">buffer, and </tspan><tspan
         x="119.65918"
         y="805.25126"
         id="tspan52">timeout</tspan></text>
    <text
       xml:space="preserve"
       transform="matrix(0.26458333,0,0,0.26458333,351.13045,21.49855)"
       id="text2-1-4-4-5"
       style="font-size:48px;line-height:1;font-family:Righteous;-inkscape-font-specification:Righteous;text-align:center;text-decoration-color:#000000;letter-spacing:0px;word-spacing:0px;white-space:pre;shape-inside:url(#rect2-4-3-5-2);display:inline;fill:#ffff66;fill-opacity:1;stroke:none;stroke-width:8.69291;stroke-linecap:square;stroke-linejoin:round;stroke-dashoffset:5.80535;stroke-opacity:0.5;paint-order:markers stroke fill"><tspan
         x="58.756836"
         y="661.25126"
         id="tspan53">Creating and </tspan><tspan
         x="71.038086"
         y="709.25126"
         id="tspan54">adding click </tspan><tspan
         x="44.694336"
         y="757.25126"
         id="tspan55">events in code</tspan></text>
    <text
       xml:space="preserve"
       transform="matrix(0.26458333,0,0,0.26458333,230.39134,21.49855)"
       id="text2-1-4-3"
       style="font-size:48px;line-height:1;font-family:Righteous;-inkscape-font-specification:Righteous;text-align:center;text-decoration-color:#000000;letter-spacing:0px;word-spacing:0px;white-space:pre;shape-inside:url(#rect2-4-3-8);display:inline;fill:#ffff66;fill-opacity:1;stroke:none;stroke-width:8.69291;stroke-linecap:square;stroke-linejoin:round;stroke-dashoffset:5.80535;stroke-opacity:0.5;paint-order:markers stroke fill"><tspan
         x="152.37793"
         y="661.25126"
         id="tspan56">Click </tspan><tspan
         x="69.479492"
         y="709.25126"
         id="tspan57">interactions </tspan><tspan
         x="81.78418"
         y="757.25126"
         id="tspan58">with timing </tspan><tspan
         x="74.65918"
         y="805.25126"
         id="tspan59">parameters</tspan></text>
    <text
       xml:space="preserve"
       transform="matrix(0.26458333,0,0,0.26458333,416.70475,-141.17845)"
       id="text3"
       style="font-size:48px;line-height:1;font-family:Righteous;-inkscape-font-specification:Righteous;text-align:center;text-decoration-color:#000000;letter-spacing:0px;word-spacing:0px;white-space:pre;shape-inside:url(#rect3);display:inline;fill:#ffff66;fill-opacity:1;stroke:none;stroke-width:8.69291;stroke-linecap:square;stroke-linejoin:round;stroke-dashoffset:5.80535;stroke-opacity:0.5;paint-order:markers stroke fill"><tspan
         x="99.757812"
         y="661.25126"
         id="tspan60">Adding </tspan><tspan
         x="103.76562"
         y="709.25126"
         id="tspan61">timing  </tspan><tspan
         x="48.816406"
         y="757.25126"
         id="tspan62">parameters </tspan><tspan
         x="47.84375"
         y="805.25126"
         id="tspan63">to events in </tspan><tspan
         x="125.28125"
         y="853.25126"
         id="tspan64">code</tspan></text>
    <g
       id="g5"
       transform="matrix(0.34231229,0,0,0.34231229,330.90387,185.95408)">
      <path
         id="text31"
         style="font-size:39.7518px;line-height:1;font-family:Righteous;-inkscape-font-specification:Righteous;text-align:justify;letter-spacing:0px;word-spacing:0px;white-space:pre;display:inline;mix-blend-mode:darken;fill:#282987;fill-opacity:0.307692;stroke-width:1.36312;stroke-linecap:round;paint-order:stroke markers fill"
         d="m 449.46542,264.89265 c -0.30997,0 -0.60374,0.0603 -0.88108,0.18087 -0.26919,0.11254 -0.50559,0.26929 -0.70952,0.47025 -0.19577,0.19293 -0.35462,0.42639 -0.47697,0.6997 -0.1142,0.26527 -0.17157,0.54645 -0.17157,0.84388 0,0.30546 0.0574,0.591 0.17157,0.85628 0.12235,0.26527 0.2812,0.49821 0.47697,0.69918 0.20393,0.19292 0.44033,0.34968 0.70952,0.47025 0.27734,0.11254 0.57111,0.16899 0.88108,0.16899 0.30997,0 0.5995,-0.0564 0.86868,-0.16899 0.27734,-0.12057 0.518,-0.27733 0.72192,-0.47025 0.20393,-0.20097 0.36329,-0.43391 0.47749,-0.69918 0.12236,-0.26528 0.18345,-0.55082 0.18345,-0.85628 0,-0.29743 -0.0611,-0.57861 -0.18345,-0.84388 -0.1142,-0.27331 -0.27356,-0.50677 -0.47749,-0.6997 -0.20392,-0.20096 -0.44458,-0.35771 -0.72192,-0.47025 -0.26918,-0.12058 -0.55871,-0.18087 -0.86868,-0.18087 z m -7.59798,0.56689 v 18.05058 h 3.36465 v -18.05058 z m 24.89925,0 v 18.05058 h 3.36465 v -1.6521 l 2.32493,-3.03857 2.65513,4.69067 h 3.84215 l -4.34393,-7.51221 4.34393,-5.37745 h -3.84215 l -4.98006,6.22185 v -11.38277 z m -32.46107,0.51831 c -0.83202,0 -1.63578,0.10853 -2.4107,0.32557 -0.76677,0.209 -1.48821,0.51045 -2.16524,0.90433 -0.66889,0.38585 -1.28087,0.85226 -1.83555,1.39888 -0.55468,0.54662 -1.03174,1.15337 -1.43144,1.82057 -0.39154,0.65916 -0.69753,1.37057 -0.91777,2.13423 -0.21209,0.76366 -0.31833,1.55564 -0.31833,2.37557 0,0.81993 0.10624,1.6119 0.31833,2.37556 0.22024,0.75563 0.52623,1.46704 0.91777,2.13424 0.3997,0.65916 0.87676,1.26205 1.43144,1.80867 0.55468,0.54662 1.16666,1.01688 1.83555,1.41077 0.67703,0.38585 1.39847,0.68294 2.16524,0.89194 0.77492,0.21704 1.57868,0.32556 2.4107,0.32556 1.0849,0 2.13304,-0.18472 3.14452,-0.55449 1.01147,-0.36978 1.9252,-0.90032 2.74091,-1.59163 l -1.85983,-3.01429 c -0.5139,0.54662 -1.12164,0.96865 -1.82315,1.26607 -0.70151,0.28939 -1.43568,0.43408 -2.20245,0.43408 -0.77492,0 -1.50112,-0.14469 -2.17816,-0.43408 -0.67703,-0.28939 -1.26831,-0.68345 -1.77405,-1.18184 -0.50574,-0.49839 -0.90524,-1.07716 -1.19889,-1.73633 -0.29366,-0.6672 -0.4408,-1.37861 -0.4408,-2.13423 0,-0.75563 0.14714,-1.46704 0.4408,-2.13424 0.29365,-0.67524 0.69315,-1.25786 1.19889,-1.74821 0.50574,-0.49839 1.09702,-0.89246 1.77405,-1.18184 0.67704,-0.28939 1.40324,-0.43408 2.17816,-0.43408 0.76677,0 1.50094,0.14854 2.20245,0.44596 0.70151,0.28939 1.30925,0.70757 1.82315,1.25419 l 1.85983,-3.01429 c -0.81571,-0.69935 -1.72944,-1.2299 -2.74091,-1.59163 -1.01148,-0.36977 -2.05962,-0.55501 -3.14452,-0.55501 z m 25.35246,4.12378 c -0.92175,0 -1.79085,0.18524 -2.60656,0.55501 -0.80755,0.36977 -1.51728,0.8762 -2.12907,1.51929 -0.60362,0.63504 -1.08068,1.38263 -1.43143,2.24275 -0.35076,0.86013 -0.52607,1.78422 -0.52607,2.77296 0,0.90835 0.17531,1.76062 0.52607,2.55643 0.35075,0.79582 0.82781,1.49133 1.43143,2.08618 0.61179,0.59485 1.32152,1.06511 2.12907,1.41077 0.81571,0.33762 1.68481,0.50643 2.60656,0.50643 0.54653,0 1.07671,-0.0647 1.5906,-0.19327 0.52206,-0.12058 1.01558,-0.30145 1.48053,-0.54261 0.47311,-0.24115 0.90927,-0.53439 1.30897,-0.88005 0.40785,-0.34565 0.76696,-0.73535 1.07693,-1.16943 l -2.44739,-2.42363 c -0.13052,0.28939 -0.30158,0.55466 -0.51367,0.79582 -0.20392,0.23311 -0.44085,0.43373 -0.71003,0.60255 -0.26103,0.16077 -0.54206,0.28571 -0.84388,0.37413 -0.30181,0.0884 -0.61578,0.1323 -0.94206,0.1323 -0.45679,0 -0.88922,-0.0844 -1.29708,-0.25322 -0.39969,-0.16881 -0.75083,-0.40175 -1.05265,-0.69918 -0.29365,-0.29743 -0.52581,-0.64326 -0.69711,-1.03715 -0.1713,-0.39388 -0.25683,-0.81591 -0.25683,-1.26607 0,-0.55466 0.0855,-1.06109 0.25683,-1.51929 0.1713,-0.45819 0.40346,-0.85174 0.69711,-1.18132 0.30182,-0.33762 0.65296,-0.59905 1.05265,-0.78393 0.40786,-0.18489 0.84029,-0.2775 1.29708,-0.2775 0.32628,0 0.64398,0.0482 0.95395,0.14469 0.30997,0.0965 0.59577,0.23731 0.85679,0.4222 0.26919,0.18488 0.50984,0.41398 0.72192,0.68729 0.21209,0.26527 0.37943,0.56672 0.50178,0.90434 l 2.44688,-2.42362 c -0.29365,-0.49036 -0.64428,-0.92444 -1.05213,-1.30225 -0.3997,-0.37781 -0.8401,-0.69516 -1.32137,-0.9524 -0.47311,-0.26527 -0.97512,-0.46641 -1.50533,-0.60306 -0.52206,-0.13666 -1.05596,-0.20516 -1.60249,-0.20516 z m -11.88093,0.49455 v 12.91394 h 3.36466 v -12.91394 z m 41.77586,-7.70965 v 5.89835 h -1.83245 v 3.74809 h 1.83245 v 4.38216 c 0,0.9095 0.17013,1.76389 0.51004,2.56315 0.34911,0.79926 0.82241,1.50206 1.41955,2.1084 0.60634,0.59715 1.30914,1.07045 2.1084,1.41955 0.79926,0.33992 1.65365,0.50953 2.56315,0.50953 h 2.85254 v -3.74809 h -2.85254 c -0.39503,0 -0.7671,-0.0737 -1.11621,-0.22066 -0.3491,-0.15618 -0.65227,-0.36288 -0.9095,-0.62012 -0.25723,-0.25723 -0.45969,-0.55563 -0.60668,-0.89555 -0.14699,-0.3491 -0.22014,-0.72117 -0.22014,-1.11621 v -4.38216 h 5.70507 v -3.74809 h -5.70507 v -5.89835 z m -8.02018,0.86816 v 19.76107 h 3.95531 v -19.76107 z m 19.65099,0 0.84078,14.88281 h 3.07268 l 0.85473,-14.88281 z m 2.39779,16.01298 c -0.33073,0 -0.63866,0.0641 -0.92346,0.19275 -0.28479,0.11943 -0.53709,0.2848 -0.75758,0.49609 -0.2113,0.2113 -0.38143,0.45935 -0.51004,0.74415 -0.11943,0.28479 -0.17932,0.58796 -0.17932,0.9095 0,0.33073 0.0599,0.64343 0.17932,0.93741 0.12861,0.2848 0.29874,0.53284 0.51004,0.74414 0.22049,0.2113 0.47279,0.37667 0.75758,0.4961 0.2848,0.12861 0.59273,0.19275 0.92346,0.19275 0.32154,0 0.62471,-0.0641 0.9095,-0.19275 0.2848,-0.11943 0.53285,-0.2848 0.74414,-0.4961 0.2113,-0.2113 0.37667,-0.45934 0.4961,-0.74414 0.12862,-0.29398 0.19275,-0.60668 0.19275,-0.93741 0,-0.32154 -0.0641,-0.62471 -0.19275,-0.9095 -0.11943,-0.2848 -0.2848,-0.53285 -0.4961,-0.74415 -0.21129,-0.21129 -0.45934,-0.37666 -0.74414,-0.49609 -0.28479,-0.12862 -0.58796,-0.19275 -0.9095,-0.19275 z"
         sodipodi:nodetypes="scscscccscccscccsccccccccccccccccccsccsccsccsccsscccssscsccssccccssccsssccscccccccssccsssccsscccccccsccccccccccscccsccscscsccccccccccccccccscccscccscscscscs" />
      <text
         xml:space="preserve"
         transform="matrix(0.70996043,0,0,0.70996043,450.59314,217.15904)"
         id="text3-1"
         style="font-style:normal;font-variant:normal;font-weight:normal;font-stretch:normal;font-size:39.7518px;line-height:1;font-family:Righteous;-inkscape-font-specification:Righteous;text-align:justify;text-decoration-color:#000000;letter-spacing:0px;word-spacing:0px;white-space:pre;shape-inside:url(#rect3-2);display:inline;fill:#ffffff;fill-opacity:1;stroke:none;stroke-width:1.92;stroke-linecap:round;stroke-linejoin:miter;stroke-dasharray:none;stroke-opacity:1;paint-order:stroke markers fill"><tspan
           x="38.960938"
           y="91.529446"
           id="tspan65">It!</tspan></text>
      <text
         xml:space="preserve"
         transform="matrix(0.68802981,0,0,0.67803062,401.67084,206.01697)"
         id="text4"
         style="font-style:normal;font-variant:normal;font-weight:normal;font-stretch:normal;font-size:36.4208px;line-height:1;font-family:Righteous;-inkscape-font-specification:Righteous;text-align:justify;text-decoration-color:#000000;letter-spacing:0px;word-spacing:0px;white-space:pre;shape-inside:url(#rect4);display:inline;fill:#ffffff;fill-opacity:1;stroke:none;stroke-width:1.92;stroke-linecap:square;stroke-linejoin:miter;stroke-miterlimit:4;stroke-dasharray:none;stroke-opacity:1;paint-order:stroke markers fill"><tspan
           x="31.167969"
           y="112.26439"
           id="tspan66">Click</tspan></text>
      <ellipse
         style="fill:#ffff66;fill-opacity:1;stroke:none;stroke-width:1.42;stroke-linecap:square;stroke-linejoin:miter;stroke-miterlimit:4;stroke-dasharray:none;stroke-dashoffset:6.97701;stroke-opacity:1;paint-order:markers stroke fill"
         id="path28"
         cx="448.16544"
         cy="265.81238"
         rx="2.2936282"
         ry="2.2939999" />
      <circle
         style="fill:#ffff66;fill-opacity:1;stroke:none;stroke-width:1.47969;stroke-linecap:square;stroke-linejoin:miter;stroke-miterlimit:4;stroke-dasharray:none;stroke-dashoffset:6.97701;stroke-opacity:1;paint-order:markers stroke fill"
         id="path28-1"
         cx="502.08301"
         cy="280.74753"
         r="2.4200001" />
    </g>
    <g
       id="g31"
       transform="matrix(1.4002836,0,0,1.4002836,-86.668251,2.0097799)">
      <path
         d="m 105.17831,28.925983 q -2.11954,1.223718 -4.45981,0.596637 -2.340271,-0.627072 -3.563984,-2.746606 l -1.957942,-3.391258 q -1.223714,-2.119532 -0.596638,-4.459804 0.627066,-2.340271 2.746609,-3.563991 2.119528,-1.223709 4.459805,-0.596633 2.34027,0.627072 3.56398,2.746603 l 1.95795,3.391259 q 1.22371,2.119533 0.59664,4.459801 -0.62707,2.340276 -2.74661,3.563992 z m -4.50374,-9.269155 3.14405,-1.815211 q -0.87558,-1.190119 -2.27129,-1.60892 -1.3958,-0.418745 -2.7899,0.103529 z m -4.415673,2.54939 3.143949,-1.815158 -1.917149,-3.3206 q -1.159545,0.928504 -1.489621,2.355476 -0.33007,1.426962 0.262821,2.780282 z m 8.185183,5.448041 q 1.58329,-0.914108 2.055,-2.674359 0.4716,-1.760196 -0.44253,-3.343482 l -1.46845,-2.543442 -7.630326,4.40537 1.468457,2.543443 q 0.914113,1.58329 2.674379,2.054914 1.76018,0.471677 3.34347,-0.442444 z m -3.63035,-6.28794 z m -0.13916,-1.709491 z m -1.271724,0.734232 z m 1.410884,0.975259 z"
         id="path36"
         style="mix-blend-mode:darken;fill:#282987;fill-opacity:0.305882;stroke:none;stroke-width:1.12;stroke-dasharray:none;stroke-opacity:1;paint-order:markers stroke fill" />
      <path
         d="m 104.08554,27.939439 q -2.11954,1.223712 -4.459808,0.596631 -2.340273,-0.627072 -3.563986,-2.746606 l -1.957942,-3.391257 q -1.223714,-2.119533 -0.596638,-4.459805 0.627066,-2.34027 2.7466,-3.563985 2.119537,-1.223715 4.459814,-0.596638 2.34027,0.627071 3.56398,2.746608 l 1.95795,3.391254 q 1.22371,2.119533 0.59663,4.459805 -0.62706,2.340271 -2.7466,3.563993 z m -4.50374,-9.269159 3.14404,-1.815208 q -0.87557,-1.190124 -2.27128,-1.608924 -1.395814,-0.418743 -2.789908,0.103534 z m -4.415672,2.549389 3.14395,-1.81516 -1.917149,-3.3206 q -1.159547,0.928506 -1.489623,2.355478 -0.33007,1.42696 0.262822,2.780282 z m 8.185172,5.448045 q 1.5833,-0.914113 2.05501,-2.674364 0.47159,-1.760191 -0.44254,-3.343477 l -1.46845,-2.543442 -7.630316,4.405366 1.468457,2.543442 q 0.914113,1.58329 2.674379,2.054915 1.76018,0.471676 3.34346,-0.44244 z M 99.720958,20.37977 Z M 99.5818,18.67028 Z m -1.271722,0.734229 z m 1.41088,0.975261 z"
         id="path1-0"
         style="fill:#ffffff;fill-opacity:1;stroke:none;stroke-width:1.12;stroke-dasharray:none;stroke-opacity:1;paint-order:markers stroke fill" />
      <path
         style="fill:none;fill-opacity:1;stroke:#ffff66;stroke-width:1.42;stroke-linecap:square;stroke-linejoin:miter;stroke-miterlimit:4;stroke-dasharray:1.42, 4.26;stroke-dashoffset:1.846;stroke-opacity:1;paint-order:markers stroke fill"
         d="m 67.828381,-1.4352663 c 0,0 1.812004,11.8478103 12.666985,10.272548 13.812974,-2.0045215 15.566725,7.4623543 15.566725,7.4623543"
         id="path27"
         sodipodi:nodetypes="csc"
         sodipodi:insensitive="true" />
    </g>
    <text
       xml:space="preserve"
       transform="matrix(0.26458333,0,0,0.26458333,12.00726,11.292823)"
       id="text5"
       style="font-size:32px;line-height:1;font-family:Righteous;-inkscape-font-specification:Righteous;text-align:center;text-decoration-color:#000000;letter-spacing:0px;word-spacing:0px;white-space:pre;shape-inside:url(#rect5);display:inline;fill:#ffff66;fill-opacity:1;stroke:none;stroke-width:8.69291;stroke-linecap:square;stroke-linejoin:round;stroke-dashoffset:5.80535;stroke-opacity:0.5;paint-order:markers stroke fill"><tspan
         x="1389.126"
         y="1025.1252"
         id="tspan68"><tspan
           style="fill:#ffffff"
           id="tspan67">thanks for downloading</tspan></tspan></text>
  </g>
</svg>
