<?xml version="1.0" encoding="UTF-8" standalone="no"?>
<!-- Created with Inkscape (http://www.inkscape.org/) -->

<svg
   width="0.16666667in"
   height="0.16666667in"
   viewBox="0 0 16 16"
   version="1.1"
   id="svg1"
   sodipodi:docname="ClickItIcon.svg"
   inkscape:version="1.3.2 (091e20e, 2023-11-25, custom)"
   xml:space="preserve"
   inkscape:export-filename="ClickIt!\Assets\ClickIt!\Editor\ClickItLiteIcon.png"
   inkscape:export-xdpi="96"
   inkscape:export-ydpi="96"
   xmlns:inkscape="http://www.inkscape.org/namespaces/inkscape"
   xmlns:sodipodi="http://sodipodi.sourceforge.net/DTD/sodipodi-0.dtd"
   xmlns="http://www.w3.org/2000/svg"
   xmlns:svg="http://www.w3.org/2000/svg"><sodipodi:namedview
     id="namedview1"
     pagecolor="#ffffff"
     bordercolor="#000000"
     borderopacity="0.25"
     inkscape:showpageshadow="2"
     inkscape:pageopacity="0.0"
     inkscape:pagecheckerboard="0"
     inkscape:deskcolor="#d1d1d1"
     inkscape:document-units="in"
     showgrid="false"
     showguides="true"
     inkscape:zoom="18.149074"
     inkscape:cx="4.7660834"
     inkscape:cy="11.873884"
     inkscape:window-width="1920"
     inkscape:window-height="1011"
     inkscape:window-x="-9"
     inkscape:window-y="31"
     inkscape:window-maximized="1"
     inkscape:current-layer="layer1"><inkscape:grid
       id="grid2"
       units="in"
       originx="-1820.931"
       originy="-171.27432"
       spacingx="96"
       spacingy="96"
       empcolor="#0099e5"
       empopacity="0.30196078"
       color="#0099e5"
       opacity="0.14901961"
       empspacing="5"
       dotted="false"
       gridanglex="30"
       gridanglez="30"
       visible="false" /></sodipodi:namedview><defs
     id="defs1" /><g
     inkscape:label="Layer 1"
     inkscape:groupmode="layer"
     id="layer1"
     transform="translate(-1820.931,-171.27432)"><path
       d="m 1828.9313,187.27432 q -2.5,0 -4.25,-1.75 -1.75,-1.75 -1.75,-4.25 v -4 q 0,-2.5 1.75,-4.25 1.75,-1.75 4.25,-1.75 2.5,0 4.25,1.75 1.75,1.75 1.75,4.25 v 4 q 0,2.5 -1.75,4.25 -1.75,1.75 -4.25,1.75 z m 0.75,-10.5 h 3.7084 q -0.1667,-1.5 -1.1875,-2.58333 -1.0209,-1.08333 -2.5209,-1.33333 z m -5.2083,0 h 3.7083 v -3.91666 q -1.5,0.22916 -2.5208,1.32291 -1.0208,1.09375 -1.1875,2.59375 z m 4.4583,9 q 1.8675,0 3.1838,-1.31625 1.3162,-1.31625 1.3162,-3.18375 v -3 h -9 v 3 q 0,1.8675 1.3163,3.18375 1.3162,1.31625 3.1837,1.31625 z m 0,-7.41666 z m 0.75,-1.58334 z m -1.5,0 z m 0.75,1.58334 z"
       id="path1-0"
       style="fill:#62aae4;fill-opacity:1;stroke-width:0.0208333" /></g></svg>
